<mxfile host="app.diagrams.net" modified="2022-07-11T01:58:27.142Z" agent="5.0 (Windows NT 10.0; Win64; x64) AppleWebKit/537.36 (KHTML, like Gecko) Chrome/103.0.0.0 Safari/537.36" etag="LFnS-ZCI0eAn6kuHuDj3" version="20.0.4" type="github">
  <diagram id="R2lEEEUBdFMjLlhIrx00" name="Page-1">
    <mxGraphModel dx="1034" dy="450" grid="1" gridSize="10" guides="1" tooltips="1" connect="1" arrows="1" fold="1" page="1" pageScale="1" pageWidth="1100" pageHeight="850" background="#283618" math="0" shadow="0" extFonts="Permanent Marker^https://fonts.googleapis.com/css?family=Permanent+Marker">
      <root>
        <mxCell id="0" />
        <mxCell id="1" parent="0" />
        <mxCell id="XdRf5X7BapmuZQwSrjJY-2" value="ABCFARMA" style="whiteSpace=wrap;html=1;align=center;rounded=0;sketch=0;fontColor=#FEFAE0;strokeColor=#DDA15E;fillColor=#BC6C25;" vertex="1" parent="1">
          <mxGeometry x="80" y="120" width="100" height="40" as="geometry" />
        </mxCell>
        <mxCell id="XdRf5X7BapmuZQwSrjJY-3" value="ALQARQ" style="whiteSpace=wrap;html=1;align=center;rounded=0;sketch=0;fontColor=#FEFAE0;strokeColor=#DDA15E;fillColor=#BC6C25;" vertex="1" parent="1">
          <mxGeometry x="200" y="120" width="100" height="40" as="geometry" />
        </mxCell>
        <mxCell id="XdRf5X7BapmuZQwSrjJY-4" value="ALQENT" style="rounded=1;arcSize=10;whiteSpace=wrap;html=1;align=center;sketch=0;fontColor=#FEFAE0;strokeColor=#DDA15E;fillColor=#BC6C25;" vertex="1" parent="1">
          <mxGeometry x="320" y="200" width="100" height="40" as="geometry" />
        </mxCell>
        <mxCell id="XdRf5X7BapmuZQwSrjJY-5" value="ALQUI (PRODUTO-ESTOQUE)" style="rounded=1;arcSize=10;whiteSpace=wrap;html=1;align=center;sketch=0;fontColor=#FEFAE0;strokeColor=#DDA15E;fillColor=#BC6C25;" vertex="1" parent="1">
          <mxGeometry x="440" y="120" width="100" height="40" as="geometry" />
        </mxCell>
        <mxCell id="XdRf5X7BapmuZQwSrjJY-6" value="AREAS" style="whiteSpace=wrap;html=1;align=center;rounded=0;sketch=0;fontColor=#FEFAE0;strokeColor=#DDA15E;fillColor=#BC6C25;" vertex="1" parent="1">
          <mxGeometry x="560" y="120" width="100" height="40" as="geometry" />
        </mxCell>
        <mxCell id="XdRf5X7BapmuZQwSrjJY-7" value="ARQLISTA" style="rounded=1;arcSize=10;whiteSpace=wrap;html=1;align=center;sketch=0;fontColor=#FEFAE0;strokeColor=#DDA15E;fillColor=#BC6C25;" vertex="1" parent="1">
          <mxGeometry x="680" y="120" width="100" height="40" as="geometry" />
        </mxCell>
        <mxCell id="XdRf5X7BapmuZQwSrjJY-8" value="CLASSES" style="rounded=1;arcSize=10;whiteSpace=wrap;html=1;align=center;sketch=0;fontColor=#FEFAE0;strokeColor=#DDA15E;fillColor=#BC6C25;" vertex="1" parent="1">
          <mxGeometry x="200" y="200" width="100" height="40" as="geometry" />
        </mxCell>
        <mxCell id="XdRf5X7BapmuZQwSrjJY-9" value="CLASTERA" style="rounded=1;arcSize=10;whiteSpace=wrap;html=1;align=center;sketch=0;fontColor=#FEFAE0;strokeColor=#DDA15E;fillColor=#BC6C25;" vertex="1" parent="1">
          <mxGeometry x="80" y="200" width="100" height="40" as="geometry" />
        </mxCell>
        <mxCell id="XdRf5X7BapmuZQwSrjJY-10" value="CONTCUP" style="rounded=1;arcSize=10;whiteSpace=wrap;html=1;align=center;sketch=0;fontColor=#FEFAE0;strokeColor=#DDA15E;fillColor=#BC6C25;" vertex="1" parent="1">
          <mxGeometry x="560" y="360" width="100" height="40" as="geometry" />
        </mxCell>
        <mxCell id="XdRf5X7BapmuZQwSrjJY-11" value="CONTDIA" style="rounded=1;arcSize=10;whiteSpace=wrap;html=1;align=center;sketch=0;fontColor=#FEFAE0;strokeColor=#DDA15E;fillColor=#BC6C25;" vertex="1" parent="1">
          <mxGeometry x="440" y="360" width="100" height="40" as="geometry" />
        </mxCell>
        <mxCell id="XdRf5X7BapmuZQwSrjJY-12" value="CONTROLE" style="rounded=1;arcSize=10;whiteSpace=wrap;html=1;align=center;sketch=0;fontColor=#FEFAE0;strokeColor=#DDA15E;fillColor=#BC6C25;" vertex="1" parent="1">
          <mxGeometry x="680" y="360" width="100" height="40" as="geometry" />
        </mxCell>
        <mxCell id="XdRf5X7BapmuZQwSrjJY-13" value="DEPARTS" style="rounded=1;arcSize=10;whiteSpace=wrap;html=1;align=center;sketch=0;fontColor=#FEFAE0;strokeColor=#DDA15E;fillColor=#BC6C25;" vertex="1" parent="1">
          <mxGeometry x="320" y="40" width="100" height="40" as="geometry" />
        </mxCell>
        <mxCell id="XdRf5X7BapmuZQwSrjJY-14" value="CRM" style="rounded=1;arcSize=10;whiteSpace=wrap;html=1;align=center;sketch=0;fontColor=#FEFAE0;strokeColor=#DDA15E;fillColor=#BC6C25;" vertex="1" parent="1">
          <mxGeometry x="680" y="200" width="100" height="40" as="geometry" />
        </mxCell>
        <mxCell id="XdRf5X7BapmuZQwSrjJY-15" value="DEVOL" style="rounded=1;arcSize=10;whiteSpace=wrap;html=1;align=center;sketch=0;fontColor=#FEFAE0;strokeColor=#DDA15E;fillColor=#BC6C25;" vertex="1" parent="1">
          <mxGeometry x="200" y="280" width="100" height="40" as="geometry" />
        </mxCell>
        <mxCell id="XdRf5X7BapmuZQwSrjJY-16" value="FILIAL" style="rounded=1;arcSize=10;whiteSpace=wrap;html=1;align=center;sketch=0;fontColor=#FEFAE0;strokeColor=#DDA15E;fillColor=#BC6C25;" vertex="1" parent="1">
          <mxGeometry x="320" y="280" width="100" height="40" as="geometry" />
        </mxCell>
        <mxCell id="XdRf5X7BapmuZQwSrjJY-17" value="LAB" style="rounded=1;arcSize=10;whiteSpace=wrap;html=1;align=center;sketch=0;fontColor=#FEFAE0;strokeColor=#DDA15E;fillColor=#BC6C25;" vertex="1" parent="1">
          <mxGeometry x="440" y="280" width="100" height="40" as="geometry" />
        </mxCell>
        <mxCell id="XdRf5X7BapmuZQwSrjJY-18" value="MOV" style="rounded=1;arcSize=10;whiteSpace=wrap;html=1;align=center;sketch=0;fontColor=#FEFAE0;strokeColor=#DDA15E;fillColor=#BC6C25;" vertex="1" parent="1">
          <mxGeometry x="560" y="280" width="100" height="40" as="geometry" />
        </mxCell>
        <mxCell id="XdRf5X7BapmuZQwSrjJY-19" value="REGISTRO" style="rounded=1;arcSize=10;whiteSpace=wrap;html=1;align=center;sketch=0;fontColor=#FEFAE0;strokeColor=#DDA15E;fillColor=#BC6C25;" vertex="1" parent="1">
          <mxGeometry x="320" y="360" width="100" height="40" as="geometry" />
        </mxCell>
        <mxCell id="XdRf5X7BapmuZQwSrjJY-20" value="VENDEDOR" style="rounded=1;arcSize=10;whiteSpace=wrap;html=1;align=center;sketch=0;fontColor=#FEFAE0;strokeColor=#DDA15E;fillColor=#BC6C25;" vertex="1" parent="1">
          <mxGeometry x="200" y="360" width="100" height="40" as="geometry" />
        </mxCell>
        <mxCell id="XdRf5X7BapmuZQwSrjJY-21" value="" style="endArrow=none;html=1;rounded=0;sketch=0;fontColor=#FEFAE0;strokeColor=#DDA15E;fillColor=#BC6C25;curved=0;" edge="1" parent="1" source="XdRf5X7BapmuZQwSrjJY-16" target="XdRf5X7BapmuZQwSrjJY-4">
          <mxGeometry relative="1" as="geometry">
            <mxPoint x="430" y="290" as="sourcePoint" />
            <mxPoint x="590" y="290" as="targetPoint" />
          </mxGeometry>
        </mxCell>
        <mxCell id="XdRf5X7BapmuZQwSrjJY-22" value="1" style="resizable=0;html=1;align=right;verticalAlign=bottom;rounded=0;sketch=0;fontColor=#FEFAE0;strokeColor=#DDA15E;fillColor=#BC6C25;" connectable="0" vertex="1" parent="XdRf5X7BapmuZQwSrjJY-21">
          <mxGeometry x="1" relative="1" as="geometry" />
        </mxCell>
        <mxCell id="XdRf5X7BapmuZQwSrjJY-23" value="" style="endArrow=none;html=1;rounded=0;sketch=0;fontColor=#FEFAE0;strokeColor=#DDA15E;fillColor=#BC6C25;curved=0;" edge="1" parent="1" source="XdRf5X7BapmuZQwSrjJY-8" target="XdRf5X7BapmuZQwSrjJY-9">
          <mxGeometry relative="1" as="geometry">
            <mxPoint x="430" y="290" as="sourcePoint" />
            <mxPoint x="590" y="290" as="targetPoint" />
          </mxGeometry>
        </mxCell>
        <mxCell id="XdRf5X7BapmuZQwSrjJY-24" value="1" style="resizable=0;html=1;align=right;verticalAlign=bottom;rounded=0;sketch=0;fontColor=#FEFAE0;strokeColor=#DDA15E;fillColor=#BC6C25;" connectable="0" vertex="1" parent="XdRf5X7BapmuZQwSrjJY-23">
          <mxGeometry x="1" relative="1" as="geometry" />
        </mxCell>
        <mxCell id="XdRf5X7BapmuZQwSrjJY-25" value="" style="endArrow=none;html=1;rounded=0;sketch=0;fontColor=#FEFAE0;strokeColor=#DDA15E;fillColor=#BC6C25;curved=0;" edge="1" parent="1" source="XdRf5X7BapmuZQwSrjJY-5" target="XdRf5X7BapmuZQwSrjJY-17">
          <mxGeometry relative="1" as="geometry">
            <mxPoint x="430" y="290" as="sourcePoint" />
            <mxPoint x="590" y="290" as="targetPoint" />
          </mxGeometry>
        </mxCell>
        <mxCell id="XdRf5X7BapmuZQwSrjJY-26" value="1" style="resizable=0;html=1;align=right;verticalAlign=bottom;rounded=0;sketch=0;fontColor=#FEFAE0;strokeColor=#DDA15E;fillColor=#BC6C25;" connectable="0" vertex="1" parent="XdRf5X7BapmuZQwSrjJY-25">
          <mxGeometry x="1" relative="1" as="geometry" />
        </mxCell>
        <mxCell id="XdRf5X7BapmuZQwSrjJY-27" value="" style="endArrow=none;html=1;rounded=0;sketch=0;fontColor=#FEFAE0;strokeColor=#DDA15E;fillColor=#BC6C25;curved=0;" edge="1" parent="1" source="XdRf5X7BapmuZQwSrjJY-5" target="XdRf5X7BapmuZQwSrjJY-8">
          <mxGeometry relative="1" as="geometry">
            <mxPoint x="430" y="290" as="sourcePoint" />
            <mxPoint x="590" y="290" as="targetPoint" />
          </mxGeometry>
        </mxCell>
        <mxCell id="XdRf5X7BapmuZQwSrjJY-28" value="1" style="resizable=0;html=1;align=right;verticalAlign=bottom;rounded=0;sketch=0;fontColor=#FEFAE0;strokeColor=#DDA15E;fillColor=#BC6C25;" connectable="0" vertex="1" parent="XdRf5X7BapmuZQwSrjJY-27">
          <mxGeometry x="1" relative="1" as="geometry" />
        </mxCell>
        <mxCell id="XdRf5X7BapmuZQwSrjJY-29" value="" style="endArrow=none;html=1;rounded=0;sketch=0;fontColor=#FEFAE0;strokeColor=#DDA15E;fillColor=#BC6C25;curved=0;" edge="1" parent="1" source="XdRf5X7BapmuZQwSrjJY-5" target="XdRf5X7BapmuZQwSrjJY-13">
          <mxGeometry relative="1" as="geometry">
            <mxPoint x="430" y="290" as="sourcePoint" />
            <mxPoint x="590" y="290" as="targetPoint" />
          </mxGeometry>
        </mxCell>
        <mxCell id="XdRf5X7BapmuZQwSrjJY-30" value="1" style="resizable=0;html=1;align=right;verticalAlign=bottom;rounded=0;sketch=0;fontColor=#FEFAE0;strokeColor=#DDA15E;fillColor=#BC6C25;" connectable="0" vertex="1" parent="XdRf5X7BapmuZQwSrjJY-29">
          <mxGeometry x="1" relative="1" as="geometry" />
        </mxCell>
        <mxCell id="XdRf5X7BapmuZQwSrjJY-31" value="" style="endArrow=none;html=1;rounded=0;sketch=0;fontColor=#FEFAE0;strokeColor=#DDA15E;fillColor=#BC6C25;curved=0;" edge="1" parent="1" source="XdRf5X7BapmuZQwSrjJY-19" target="XdRf5X7BapmuZQwSrjJY-16">
          <mxGeometry relative="1" as="geometry">
            <mxPoint x="430" y="250" as="sourcePoint" />
            <mxPoint x="590" y="250" as="targetPoint" />
          </mxGeometry>
        </mxCell>
        <mxCell id="XdRf5X7BapmuZQwSrjJY-32" value="1" style="resizable=0;html=1;align=right;verticalAlign=bottom;rounded=0;sketch=0;fontColor=#FEFAE0;strokeColor=#DDA15E;fillColor=#BC6C25;" connectable="0" vertex="1" parent="XdRf5X7BapmuZQwSrjJY-31">
          <mxGeometry x="1" relative="1" as="geometry" />
        </mxCell>
        <mxCell id="XdRf5X7BapmuZQwSrjJY-33" value="" style="endArrow=none;html=1;rounded=0;sketch=0;fontColor=#FEFAE0;strokeColor=#DDA15E;fillColor=#BC6C25;curved=0;" edge="1" parent="1" source="XdRf5X7BapmuZQwSrjJY-20" target="XdRf5X7BapmuZQwSrjJY-16">
          <mxGeometry relative="1" as="geometry">
            <mxPoint x="430" y="250" as="sourcePoint" />
            <mxPoint x="590" y="250" as="targetPoint" />
          </mxGeometry>
        </mxCell>
        <mxCell id="XdRf5X7BapmuZQwSrjJY-34" value="1" style="resizable=0;html=1;align=right;verticalAlign=bottom;rounded=0;sketch=0;fontColor=#FEFAE0;strokeColor=#DDA15E;fillColor=#BC6C25;" connectable="0" vertex="1" parent="XdRf5X7BapmuZQwSrjJY-33">
          <mxGeometry x="1" relative="1" as="geometry" />
        </mxCell>
        <mxCell id="XdRf5X7BapmuZQwSrjJY-35" value="" style="endArrow=none;html=1;rounded=0;sketch=0;fontColor=#FEFAE0;strokeColor=#DDA15E;fillColor=#BC6C25;curved=0;" edge="1" parent="1" source="XdRf5X7BapmuZQwSrjJY-5" target="XdRf5X7BapmuZQwSrjJY-16">
          <mxGeometry relative="1" as="geometry">
            <mxPoint x="430" y="250" as="sourcePoint" />
            <mxPoint x="590" y="250" as="targetPoint" />
          </mxGeometry>
        </mxCell>
        <mxCell id="XdRf5X7BapmuZQwSrjJY-36" value="1" style="resizable=0;html=1;align=right;verticalAlign=bottom;rounded=0;sketch=0;fontColor=#FEFAE0;strokeColor=#DDA15E;fillColor=#BC6C25;" connectable="0" vertex="1" parent="XdRf5X7BapmuZQwSrjJY-35">
          <mxGeometry x="1" relative="1" as="geometry" />
        </mxCell>
      </root>
    </mxGraphModel>
  </diagram>
</mxfile>
